# xmcd
#
# Track frame offsets:
#	150
#	15232
#	35147
#	51077
#	66389
#	81687
#	96217
#	110784
#	127644
#	142854
#	161442
#	180779
#
# Disc length: 2601 seconds
#
# Revision: 3
# Processed by: cddbd v1.5.2PL0 Copyright (c) Steve Scherf et al.
# Submitted via: EZCDAudioConverter 7.1.5.1
#
DISCID=970a270c
DTITLE=Ronnie Dunn - Tattooed Heart
DYEAR=2016
DGENRE=Country
TTITLE0=Ain't No Trucks In Texas
TTITLE1=Damn Drunk
TTITLE2=I Worship The Woman You Walked On
TTITLE3=That's Why They Make Jack Daniels
TTITLE4=I Put That There
TTITLE5=Young Buck
TTITLE6=I Wanna Love Like That Again
TTITLE7=Still Feels Like Mexico
TTITLE8=Tattooed Heart
TTITLE9=This Old Heart
TTITLE10=Only Broken Heart In San Antone
TTITLE11=She Don't Honky Tonk No More
EXTD=
EXTT0=
EXTT1=
EXTT2=
EXTT3=
EXTT4=
EXTT5=
EXTT6=
EXTT7=
EXTT8=
EXTT9=
EXTT10=
EXTT11=
PLAYORDER=
